<?xml version="1.0" standalone="no"?>
<!DOCTYPE svg PUBLIC "-//W3C//DTD SVG 20010904//EN"
 "http://www.w3.org/TR/2001/REC-SVG-20010904/DTD/svg10.dtd">
<svg version="1.0" xmlns="http://www.w3.org/2000/svg"
 width="512.000000pt" height="512.000000pt" viewBox="0 0 512.000000 512.000000"
 preserveAspectRatio="xMidYMid meet">
<metadata>
Created by potrace 1.14, written by Peter Selinger 2001-2017
</metadata>
<g transform="translate(0.000000,512.000000) scale(0.100000,-0.100000)"
fill="#000000" stroke="none">
<path d="M0 2560 l0 -2560 2560 0 2560 0 0 2560 0 2560 -2560 0 -2560 0 0
-2560z m807 2403 c-7 -23 -16 -45 -20 -49 -4 -4 0 15 8 42 8 27 15 51 15 53 0
2 2 2 5 0 2 -3 -1 -23 -8 -46z m3736 -3 c3 -11 2 -20 -3 -20 -4 0 -10 9 -13
20 -3 11 -2 20 3 20 4 0 10 -9 13 -20z m17 -70 c5 -19 6 -29 1 -24 -10 10 -26
72 -17 63 4 -4 11 -21 16 -39z m-3827 -208 c-31 -116 -58 -210 -61 -208 -2 3
17 85 43 183 52 200 66 246 70 241 2 -2 -22 -99 -52 -216z m3857 102 c11 -36
20 -71 20 -78 -1 -16 -26 44 -33 79 -3 17 -9 38 -12 48 -4 9 -5 17 -1 17 3 0
14 -30 26 -66z m28 -125 c-3 -8 -7 -3 -11 10 -4 17 -3 21 5 13 5 -5 8 -16 6
-23z m35 -124 l6 -40 -13 40 c-7 22 -16 56 -20 75 l-6 35 14 -35 c7 -19 16
-53 19 -75z m-3993 -132 c-7 -26 -16 -52 -21 -57 -4 -4 0 19 8 53 9 34 18 59
21 57 2 -3 -1 -27 -8 -53z m4017 35 c-3 -8 -6 -5 -6 6 -1 11 2 17 5 13 3 -3 4
-12 1 -19z m27 -69 c3 -13 10 -40 15 -59 12 -39 14 -56 5 -47 -5 5 -13 32 -29
100 -2 10 -7 28 -10 40 -5 17 -4 19 4 6 5 -8 12 -26 15 -40z m-4064 -63 c0 -3
-4 -8 -10 -11 -5 -3 -10 -1 -10 4 0 6 5 11 10 11 6 0 10 -2 10 -4z m-20 -61
c0 -8 -4 -15 -10 -15 -5 0 -7 7 -4 15 4 8 8 15 10 15 2 0 4 -7 4 -15z m4118
-26 c-3 -8 -7 -3 -11 10 -4 17 -3 21 5 13 5 -5 8 -16 6 -23z m-4137 -36 c-10
-17 -10 -16 -11 3 0 23 13 41 18 25 2 -6 -1 -18 -7 -28z m4164 -43 c3 -8 7
-26 11 -40 4 -15 3 -22 -2 -17 -5 5 -9 12 -10 15 0 4 -6 25 -12 47 -7 22 -12
45 -11 50 0 10 18 -29 24 -55z m-4185 -27 c-11 -17 -11 -17 -6 0 3 10 7 26 7
35 1 15 2 15 6 0 2 -10 -1 -25 -7 -35z m-15 -62 c-7 -22 -10 -43 -7 -47 4 -4
2 -4 -4 -1 -13 7 4 87 18 87 4 0 1 -18 -7 -39z m4244 -74 c10 -31 15 -57 11
-57 -4 0 -13 20 -19 44 -6 24 -14 52 -17 62 -4 11 -4 16 -1 13 4 -3 15 -31 26
-62z m-4259 3 c0 -5 -5 -10 -11 -10 -5 0 -7 5 -4 10 3 6 8 10 11 10 2 0 4 -4
4 -10z m-16 -55 c-4 -8 -8 -15 -10 -15 -2 0 -4 7 -4 15 0 8 4 15 10 15 5 0 7
-7 4 -15z m4301 -24 c3 -5 1 -12 -5 -16 -5 -3 -10 1 -10 9 0 18 6 21 15 7z
m-4318 -36 c-6 -19 -12 -33 -14 -32 -6 7 9 67 17 67 5 0 3 -16 -3 -35z m4333
-30 c0 -5 -5 -3 -10 5 -5 8 -10 20 -10 25 0 6 5 3 10 -5 5 -8 10 -19 10 -25z
m-4354 -49 c-6 -19 -12 -33 -14 -31 -7 6 9 65 17 65 5 0 3 -15 -3 -34z m4366
-1 c3 -13 2 -22 -2 -20 -4 3 -10 16 -12 30 -3 13 -2 22 2 20 4 -3 10 -16 12
-30z m25 -75 c5 -22 7 -40 3 -40 -4 0 -12 18 -18 40 -5 22 -7 40 -3 40 4 0 12
-18 18 -40z m-4413 -8 c-4 -18 -10 -32 -14 -32 -5 0 -3 16 3 35 13 42 20 40
11 -3z m-29 -103 c-10 -21 -14 -25 -10 -9 4 14 9 36 13 50 4 16 7 19 9 9 2 -8
-3 -31 -12 -50z m4490 -67 c-5 -5 -29 47 -39 88 -3 14 5 1 19 -29 14 -30 23
-56 20 -59z m-2065 24 c8 -2 -9 -4 -37 -5 -29 0 -53 3 -53 7 0 7 52 6 90 -2z
m-2435 -8 c-19 -55 -26 -70 -30 -66 -6 5 22 78 30 78 2 0 2 -6 0 -12z m2230 7
c-23 -8 -149 -12 -130 -4 11 4 47 8 80 8 33 -1 56 -2 50 -4z m258 -12 c-7 -2
-19 -2 -25 0 -7 3 -2 5 12 5 14 0 19 -2 13 -5z m52 -3 c13 -6 15 -9 5 -9 -8 0
-22 4 -30 9 -18 12 -2 12 25 0z m-535 -9 c-8 -5 -39 -14 -68 -21 -30 -7 -83
-23 -119 -36 -36 -13 -71 -24 -77 -24 -22 0 38 33 65 36 16 2 50 10 77 18 99
32 150 43 122 27z m751 -46 c40 -14 75 -25 77 -25 3 0 3 -2 1 -5 -3 -2 -45 9
-93 25 -48 17 -105 33 -127 36 -22 4 -42 10 -44 14 -7 11 100 -15 186 -45z
m-946 35 c-3 -5 -1 -10 4 -10 6 0 11 5 11 10 0 6 5 10 11 10 6 0 9 -5 7 -12
-3 -7 -34 -12 -86 -13 -44 0 -80 1 -78 3 2 1 32 7 67 11 35 5 65 9 67 10 2 0
0 -3 -3 -9z m395 0 c-14 -4 -45 -8 -70 -7 l-45 0 50 7 c73 10 96 10 65 0z
m200 1 c0 -4 -11 -6 -25 -3 -14 2 -25 6 -25 8 0 2 11 4 25 4 14 0 25 -4 25 -9z
m68 -8 c-10 -2 -28 -2 -40 0 -13 2 -5 4 17 4 22 1 32 -1 23 -4z m-395 -10 c-7
-2 -21 -2 -30 0 -10 3 -4 5 12 5 17 0 24 -2 18 -5z m492 -3 c27 -7 27 -8 5 -8
-14 0 -38 4 -55 8 -27 7 -27 8 -5 8 14 0 39 -4 55 -8z m-977 -30 c-96 -35
-263 -123 -288 -150 -3 -4 -26 -20 -51 -37 l-46 -30 15 30 c9 17 17 26 19 20
3 -7 31 6 70 33 101 69 298 163 343 163 8 0 -20 -13 -62 -29z m387 15 c-27 -8
-51 -12 -53 -10 -6 5 58 23 83 23 11 0 -2 -6 -30 -13z m2555 -29 c0 -26 -6
-18 -14 19 -5 22 -4 26 4 15 5 -8 10 -24 10 -34z m-2811 21 c-2 -1 -29 -14
-59 -27 -30 -13 -84 -42 -120 -64 -36 -21 -74 -44 -85 -50 -20 -11 -74 -50
-125 -91 -48 -39 -179 -175 -224 -233 -81 -106 -151 -227 -196 -341 -25 -61
-46 -107 -48 -103 -5 16 87 223 134 300 121 200 282 366 473 489 36 23 60 43
52 43 -19 0 -178 -92 -251 -146 -33 -24 -60 -40 -60 -35 0 15 165 120 270 173
96 48 231 100 239 92 2 -2 2 -5 0 -7z m981 -13 c55 -20 22 -16 -45 6 -33 11
-44 17 -25 13 19 -3 50 -11 70 -19z m-794 9 c-6 -7 -32 -16 -151 -57 -11 -4
-6 1 10 10 17 10 55 25 85 35 65 21 66 21 56 12z m-1946 -13 c0 -5 -5 -10 -11
-10 -5 0 -7 5 -4 10 3 6 8 10 11 10 2 0 4 -4 4 -10z m2958 -86 c72 -36 132
-70 132 -76 0 -5 -15 0 -32 12 -27 18 -131 69 -258 129 l-25 11 25 -6 c14 -3
85 -35 158 -70z m6 40 c61 -32 117 -66 239 -148 l27 -18 6 31 c6 27 19 35 19
13 0 -4 4 -13 9 -21 6 -10 6 -12 -3 -7 -7 5 -17 1 -24 -8 -11 -15 -23 -9 -112
50 -55 37 -133 82 -172 102 -67 31 -84 42 -67 42 4 0 39 -16 78 -36z m-2976 2
c-1 -14 -5 -23 -9 -20 -7 4 0 44 7 44 2 0 3 -11 2 -24z m4589 -8 c-3 -8 -6 -5
-6 6 -1 11 2 17 5 13 3 -3 4 -12 1 -19z m-2897 -49 c-52 -28 -124 -72 -160
-97 -100 -71 -251 -223 -325 -328 -37 -52 -69 -94 -72 -94 -8 0 22 44 91 135
127 169 287 302 491 409 27 14 54 26 60 26 5 0 -33 -23 -85 -51z m2897 -11
c-3 -8 -6 -5 -6 6 -1 11 2 17 5 13 3 -3 4 -12 1 -19z m-26 -100 c-37 -78 -64
-110 -127 -151 -38 -25 -139 -67 -119 -49 6 5 32 17 58 26 88 33 193 158 198
236 2 23 2 23 6 3 2 -12 -5 -42 -16 -65z m-4546 4 c20 -63 100 -155 151 -174
19 -6 34 -16 34 -20 0 -11 -55 17 -97 49 -41 31 -89 106 -107 168 -20 64 -3
44 19 -23z m618 38 c3 -11 1 -18 -3 -15 -5 3 -20 -18 -34 -47 -23 -49 -96
-142 -96 -124 0 5 16 26 36 48 37 41 74 116 74 149 0 25 16 17 23 -11z m1562
10 c-3 -5 -16 -10 -28 -9 -20 1 -20 2 3 9 14 4 26 8 28 9 2 1 0 -3 -3 -9z
m103 3 c-16 -2 -40 -2 -55 0 -16 2 -3 4 27 4 30 0 43 -2 28 -4z m73 -11 c-13
-2 -27 0 -32 5 -6 6 3 7 23 4 28 -4 29 -6 9 -9z m1564 -29 c10 -27 29 -63 43
-81 14 -18 23 -35 20 -37 -6 -6 -63 83 -73 113 -6 22 -9 19 -31 -28 -25 -55
-80 -116 -129 -145 l-30 -17 25 22 c14 12 35 30 47 40 32 25 90 114 98 150 4
16 8 30 9 30 2 0 11 -21 21 -47z m-1820 27 c-11 -5 -27 -9 -35 -9 -9 0 -8 4 5
9 11 5 27 9 35 9 9 0 8 -4 -5 -9z m345 0 c18 -12 2 -12 -25 0 -13 6 -15 9 -5
9 8 0 22 -4 30 -9z m-420 -10 c-8 -5 -19 -10 -25 -10 -5 0 -3 5 5 10 8 5 20
10 25 10 6 0 3 -5 -5 -10z m480 0 c18 -12 2 -12 -25 0 -13 6 -15 9 -5 9 8 0
22 -4 30 -9z m628 -16 l27 -27 -32 22 c-18 12 -33 24 -33 27 0 10 13 2 38 -22z
m-1163 6 c-41 -17 -187 -58 -179 -50 5 5 47 20 94 34 85 25 123 32 85 16z
m640 -11 c13 -6 5 -6 -20 -3 -22 4 -47 10 -55 15 -18 10 46 0 75 -12z m-1951
-58 c39 -57 47 -77 19 -43 -46 53 -52 62 -48 62 3 0 0 10 -6 23 -17 33 -5 19
35 -42z m541 16 c-16 -12 -66 -57 -109 -99 -44 -43 -81 -76 -83 -74 -4 4 111
118 177 175 19 16 37 27 40 25 3 -3 -9 -15 -25 -27z m1553 -4 c94 -39 69 -37
-33 3 -50 19 -76 32 -60 29 17 -3 58 -18 93 -32z m522 27 c0 -5 -4 -10 -10
-10 -5 0 -10 5 -10 10 0 6 5 10 10 10 6 0 10 -4 10 -10z m-31 -59 c25 -22 43
-42 40 -45 -2 -2 -31 21 -64 51 -33 31 -51 51 -40 45 11 -6 40 -29 64 -51z
m-1469 33 c0 -8 -91 -46 -97 -40 -3 3 7 10 23 16 16 6 38 14 49 19 25 12 25
12 25 5z m1585 -88 c30 -28 104 -66 131 -66 8 0 14 -4 14 -10 0 -12 -93 24
-129 49 -35 26 -85 82 -94 106 -4 11 5 4 20 -15 16 -19 42 -48 58 -64z m-2227
-18 c-57 -57 -123 -125 -146 -153 -24 -27 -39 -42 -35 -32 21 42 261 287 281
287 1 0 -44 -46 -100 -102z m1717 62 c3 -6 -1 -7 -9 -4 -18 7 -21 14 -7 14 6
0 13 -4 16 -10z m-1205 -20 c-14 -11 -28 -20 -33 -20 -4 0 -26 -12 -48 -26
-23 -14 -43 -23 -45 -21 -6 5 126 85 141 86 6 0 -1 -8 -15 -19z m1325 -46 c81
-50 245 -178 245 -191 0 -6 -47 28 -87 64 -61 54 -89 74 -173 125 -94 56 -97
58 -84 58 6 0 50 -25 99 -56z m1045 15 c0 -6 -4 -7 -10 -4 -5 3 -10 11 -10 16
0 6 5 7 10 4 6 -3 10 -11 10 -16z m-3265 -14 c17 -14 26 -25 20 -25 -5 0 -23
11 -39 25 -38 32 -20 32 19 0z m-275 -3 c0 -5 -18 -18 -40 -30 -22 -11 -40
-17 -40 -12 0 5 11 12 25 16 13 3 29 12 36 20 13 16 19 18 19 6z m3607 -18
c24 -10 43 -22 43 -26 0 -4 -15 0 -32 8 -18 8 -41 17 -50 21 -10 3 -18 10 -18
15 0 5 3 8 8 6 4 -2 26 -13 49 -24z m-3555 -6 c-7 -7 -12 -8 -12 -2 0 14 12
26 19 19 2 -3 -1 -11 -7 -17z m2843 -23 c18 -19 30 -37 27 -40 -3 -3 -1 -5 5
-5 9 0 48 -50 77 -100 13 -22 5 -13 -70 80 -37 47 -73 88 -78 92 -6 4 -7 8 -2
8 5 0 24 -16 41 -35z m-2505 -2 c9 -9 -65 9 -74 18 -5 4 8 3 30 -2 21 -6 41
-13 44 -16z m632 10 c-23 -9 -116 -86 -186 -155 -38 -38 -70 -67 -72 -65 -2 2
20 28 49 58 85 86 207 183 217 172 3 -3 -1 -8 -8 -10z m2213 8 c-13 -11 -81
-34 -71 -24 4 5 22 13 39 20 40 15 43 15 32 4z m-3225 -31 c-38 -30 -107 -60
-132 -59 -18 1 -17 3 7 8 44 11 101 40 121 62 9 10 20 17 23 13 3 -3 -5 -14
-19 -24z m3614 -39 c-2 -2 -22 8 -44 23 l-40 26 -3 -942 -2 -943 -3 953 -2
952 49 -32 c27 -18 48 -35 45 -37z m-3879 49 c3 -6 -1 -7 -9 -4 -18 7 -21 14
-7 14 6 0 13 -4 16 -10z m165 6 c0 -2 -9 -6 -20 -9 -11 -3 -18 -1 -14 4 5 9
34 13 34 5z m-107 -13 c-7 -2 -21 -2 -30 0 -10 3 -4 5 12 5 17 0 24 -2 18 -5z
m50 0 c-7 -2 -19 -2 -25 0 -7 3 -2 5 12 5 14 0 19 -2 13 -5z m584 1 c-3 -3
-12 -4 -19 -1 -8 3 -5 6 6 6 11 1 17 -2 13 -5z m38 -4 c-3 -5 -10 -10 -16 -10
-5 0 -9 5 -9 10 0 6 7 10 16 10 8 0 12 -4 9 -10z m42 4 c-3 -3 -12 -4 -19 -1
-8 3 -5 6 6 6 11 1 17 -2 13 -5z m2560 0 c-3 -3 -12 -4 -19 -1 -8 3 -5 6 6 6
11 1 17 -2 13 -5z m66 -1 c-7 -2 -19 -2 -25 0 -7 3 -2 5 12 5 14 0 19 -2 13
-5z m595 0 c-10 -2 -26 -2 -35 0 -10 3 -2 5 17 5 19 0 27 -2 18 -5z m55 0 c-7
-2 -19 -2 -25 0 -7 3 -2 5 12 5 14 0 19 -2 13 -5z m-68 -62 c2 -4 -9 -5 -26
-3 -16 2 -29 8 -29 12 0 9 48 1 55 -9z m-3271 -108 c-53 -80 -117 -195 -137
-245 -12 -32 -25 -58 -29 -58 -9 0 52 137 84 189 55 90 89 141 94 141 4 0 -2
-12 -12 -27z m2348 -25 c93 -111 220 -306 175 -270 -9 8 -19 23 -23 35 -7 23
-66 117 -86 138 -7 8 -31 36 -53 64 -22 27 -48 58 -57 67 -10 10 -14 18 -9 18
5 0 29 -24 53 -52z m264 -36 c10 -21 23 -40 29 -44 5 -4 7 -8 2 -8 -4 0 4 -24
19 -52 14 -29 22 -48 17 -43 -6 6 -36 60 -67 120 -31 61 -48 99 -38 87 10 -13
27 -40 38 -60z m-2434 -4 c-7 -7 -12 -8 -12 -2 0 14 12 26 19 19 2 -3 -1 -11
-7 -17z m107 -5 c-14 -16 -42 -52 -63 -80 -21 -29 -40 -53 -42 -53 -13 0 107
159 120 160 6 0 -2 -12 -15 -27z m-136 -56 c-10 -20 -21 -37 -25 -37 -5 0 1
18 12 41 26 50 36 47 13 -4z m-23 -51 c0 -3 -4 -8 -10 -11 -5 -3 -10 -1 -10 4
0 6 5 11 10 11 6 0 10 -2 10 -4z m1220 -15 c16 -5 1 -7 -41 -7 -37 1 -62 4
-55 8 14 9 62 9 96 -1z m-1240 -32 c-7 -11 -14 -18 -17 -15 -3 3 0 12 7 21 18
21 23 19 10 -6z m1066 1 c-48 -24 -79 -52 -117 -104 -31 -41 -41 -38 -12 4 34
49 129 121 158 120 5 -1 -8 -10 -29 -20z m245 6 c37 -16 89 -56 71 -56 -6 0
-14 5 -17 10 -4 6 -27 21 -53 35 -52 27 -53 33 -1 11z m-1283 -81 c-16 -30
-31 -55 -34 -55 -2 0 8 25 23 55 15 30 30 55 34 55 4 0 -6 -25 -23 -55z m-51
21 c-7 -14 -13 -23 -15 -21 -7 6 9 45 18 45 4 0 3 -11 -3 -24z m2673 -160 c0
-5 -2 -7 -5 -4 -7 7 -55 170 -54 183 1 11 59 -165 59 -179z m-1203 91 c8 -16
12 -34 9 -40 -2 -7 -5 -5 -5 4 -1 9 -15 36 -33 60 -22 32 -25 39 -9 24 13 -11
30 -33 38 -48z m1030 -64 c-5 -5 -47 83 -47 96 1 3 12 -16 26 -42 14 -27 23
-51 21 -54z m-2628 33 c-6 -26 -13 -45 -16 -43 -2 3 1 26 8 51 6 26 13 45 16
43 2 -3 -1 -26 -8 -51z m107 28 c-4 -9 -9 -15 -11 -12 -3 3 -3 13 1 22 4 9 9
15 11 12 3 -3 3 -13 -1 -22z m-257 -47 c-5 -20 -12 -37 -15 -37 -6 0 5 59 13
73 11 18 12 -1 2 -36z m283 1 c-5 -7 -20 -46 -33 -85 -12 -40 -26 -68 -30 -62
-3 6 -7 -7 -7 -28 -1 -47 -6 -70 -16 -80 -4 -4 -5 19 -1 52 4 33 8 65 8 72 0
6 6 9 14 6 7 -3 13 1 13 10 0 25 42 127 53 127 6 0 6 -4 -1 -12z m-51 -34 c-9
-28 -9 -29 -10 -3 -1 14 2 29 6 32 11 12 13 2 4 -29z m983 21 c-4 -8 -8 -15
-10 -15 -2 0 -4 7 -4 15 0 8 4 15 10 15 5 0 7 -7 4 -15z m558 -20 c3 -13 1
-22 -3 -19 -9 5 -13 44 -5 44 2 0 6 -11 8 -25z m1038 -64 c-1 -13 -29 45 -29
59 0 8 6 0 14 -19 8 -18 15 -36 15 -40z m-2840 12 c-11 -17 -11 -17 -6 0 3 10
6 24 7 30 0 9 2 9 5 0 3 -7 0 -20 -6 -30z m247 -15 c-3 -7 -5 -2 -5 12 0 14 2
19 5 13 2 -7 2 -19 0 -25z m-100 -20 c-3 -8 -6 -5 -6 6 -1 11 2 17 5 13 3 -3
4 -12 1 -19z m-161 -38 c-5 -27 -14 -50 -18 -50 -10 0 -10 0 3 41 6 19 12 40
15 47 9 31 10 7 0 -38z m1251 44 c-3 -3 -2 -17 3 -30 6 -15 6 -24 0 -24 -6 0
-10 6 -10 14 0 8 -3 21 -6 30 -4 10 -1 16 7 16 7 0 10 -3 6 -6z m1620 -39 c6
-25 8 -43 4 -40 -10 11 -29 85 -22 85 4 0 12 -20 18 -45z m143 1 c0 -26 -6
-18 -14 19 -5 22 -4 26 4 15 5 -8 10 -24 10 -34z m-2240 23 c0 -5 -11 -9 -25
-9 -33 0 -33 15 0 16 14 1 25 -2 25 -7z m1037 -21 c-3 -7 -5 -2 -5 12 0 14 2
19 5 13 2 -7 2 -19 0 -25z m520 19 c3 -4 -8 -7 -25 -7 -18 0 -32 4 -32 9 0 11
46 8 57 -2z m-1617 -1 c0 -2 -7 -6 -15 -10 -8 -3 -15 -1 -15 4 0 6 7 10 15 10
8 0 15 -2 15 -4z m105 -6 c3 -6 -1 -7 -9 -4 -18 7 -21 14 -7 14 6 0 13 -4 16
-10z m1410 -10 c-71 -33 -118 -88 -134 -156 -6 -25 -9 -31 -10 -16 -1 33 26
92 57 126 26 27 96 66 117 65 6 0 -8 -9 -30 -19z m140 10 c3 -6 -1 -7 -9 -4
-18 7 -21 14 -7 14 6 0 13 -4 16 -10z m-1709 -13 c-10 -7 -30 -22 -44 -34 -14
-13 -27 -23 -30 -23 -11 0 44 53 63 60 28 12 33 11 11 -3z m232 -24 c131 -107
100 -313 -56 -375 -23 -9 -42 -13 -42 -9 0 4 17 13 38 19 76 23 132 106 132
197 0 70 -29 126 -84 165 -25 18 -46 35 -46 37 0 9 18 -1 58 -34z m1546 8 c26
-22 76 -91 76 -105 0 -6 -13 9 -29 34 -16 25 -39 52 -51 60 -12 8 -29 21 -38
28 -15 11 -15 11 3 6 11 -4 29 -14 39 -23z m-2284 -21 c0 -11 -4 -20 -9 -20
-5 0 -7 9 -4 20 3 11 7 20 9 20 2 0 4 -9 4 -20z m1624 -50 c-15 -22 -29 -39
-31 -36 -2 2 7 21 22 41 14 21 26 45 26 54 1 14 2 14 6 -1 2 -9 -8 -35 -23
-58z m-504 25 c0 -5 -5 -3 -10 5 -5 8 -10 20 -10 25 0 6 5 3 10 -5 5 -8 10
-19 10 -25z m1749 -34 c1 -48 -5 -35 -12 24 -4 32 -3 43 3 30 5 -11 9 -35 9
-54z m-131 34 c-3 -3 1 -31 8 -63 14 -59 17 -89 9 -80 -3 2 -9 29 -15 59 -6
30 -13 62 -16 72 -3 10 0 17 7 17 7 0 10 -2 7 -5z m-2332 -49 c-11 -25 -22
-43 -24 -42 -5 6 30 86 37 86 4 0 -2 -20 -13 -44z m-406 30 c0 -3 -4 -8 -10
-11 -5 -3 -10 -1 -10 4 0 6 5 11 10 11 6 0 10 -2 10 -4z m1161 -34 c17 -25 48
-48 90 -69 35 -18 58 -33 51 -33 -17 0 -70 27 -109 56 -33 25 -80 84 -66 84 4
-1 20 -18 34 -38z m-1331 8 c0 -5 -2 -10 -4 -10 -3 0 -8 5 -11 10 -3 6 -1 10
4 10 6 0 11 -4 11 -10z m157 -152 c-2 -29 -3 -6 -3 52 0 58 1 81 3 53 2 -29 2
-77 0 -105z m-170 110 c-3 -8 -6 -5 -6 6 -1 11 2 17 5 13 3 -3 4 -12 1 -19z
m1753 -3 c-8 -9 -27 -23 -43 -32 -39 -20 -114 -46 -102 -35 6 5 31 16 56 26
26 9 57 27 70 39 27 26 39 26 19 2z m800 -5 c0 -11 -2 -20 -4 -20 -2 0 -6 9
-9 20 -3 11 -1 20 4 20 5 0 9 -9 9 -20z m497 -77 c-2 -21 -4 -6 -4 32 0 39 2
55 4 38 2 -18 2 -50 0 -70z m76 -5 c10 -123 9 -178 -4 -178 -6 0 -9 7 -5 15 3
8 1 15 -4 15 -6 0 -10 -8 -10 -17 0 -9 -2 -14 -5 -12 -2 3 -1 23 2 45 6 36 7
37 14 14 5 -20 7 -15 8 20 0 33 -2 41 -9 30 -7 -10 -9 11 -7 67 1 46 5 83 8
83 3 0 9 -37 12 -82z m-3131 40 c-7 -7 -10 -5 -7 8 5 29 6 30 12 16 3 -8 1
-18 -5 -24z m575 -5 c-3 -10 -5 -4 -5 12 0 17 2 24 5 18 2 -7 2 -21 0 -30z
m1962 -87 c-11 -25 -26 -46 -32 -46 -5 0 -4 8 5 18 21 26 38 69 40 105 l1 32
4 -31 c3 -19 -5 -50 -18 -78z m-386 -2 c9 -18 36 -48 59 -69 24 -20 34 -33 23
-29 -52 20 -116 116 -114 171 1 25 2 25 8 -7 4 -19 15 -49 24 -66z m-2156 29
c-3 -10 -5 -4 -5 12 0 17 2 24 5 18 2 -7 2 -21 0 -30z m2960 22 c0 -8 -4 -15
-9 -15 -4 0 -8 7 -8 15 0 8 4 15 8 15 5 0 9 -7 9 -15z m-2359 -37 c18 -41 82
-108 102 -108 6 0 10 -5 10 -10 0 -6 -18 2 -40 16 -40 27 -70 65 -89 117 -16
43 -4 32 17 -15z m2359 -35 c-3 -10 -5 -4 -5 12 0 17 2 24 5 18 2 -7 2 -21 0
-30z m98 -35 c-4 -40 -10 -76 -14 -81 -4 -4 -4 19 0 50 4 32 8 68 8 81 1 12 4
22 7 22 3 0 3 -33 -1 -72z m-574 -18 c-13 -11 -28 -20 -33 -20 -6 0 0 9 13 20
13 10 29 19 34 19 6 0 -1 -9 -14 -19z m-2289 -26 c2 -19 -1 -38 -6 -41 -6 -4
-8 -3 -5 1 4 4 3 23 -1 42 -4 18 -4 34 0 34 4 0 10 -16 12 -36z m1689 -55 c41
-39 65 -67 54 -61 -11 6 -45 36 -75 66 l-54 56 -241 0 -240 -1 -64 -59 c-35
-33 -68 -60 -73 -60 -5 0 17 22 50 50 33 27 62 57 66 65 5 13 42 15 254 15
l249 0 74 -71z m410 43 c-7 -2 -18 1 -23 6 -8 8 -4 9 13 5 13 -4 18 -8 10 -11z
m124 4 c-11 -8 -24 -12 -29 -8 -5 3 -1 9 10 13 31 12 39 10 19 -5z m-2418 -43
c-3 -10 -5 -2 -5 17 0 19 2 27 5 18 2 -10 2 -26 0 -35z m750 41 c-3 -3 -12 -4
-19 -1 -8 3 -5 6 6 6 11 1 17 -2 13 -5z m56 -11 c-7 -2 -21 -2 -30 0 -10 3 -4
5 12 5 17 0 24 -2 18 -5z m1555 0 c-10 -2 -26 -2 -35 0 -10 3 -2 5 17 5 19 0
27 -2 18 -5z m743 -59 c-5 -21 -9 -30 -10 -19 -1 24 10 67 15 62 3 -2 0 -22
-5 -43z m26 4 c-3 -7 -5 -2 -5 12 0 14 2 19 5 13 2 -7 2 -19 0 -25z m-170 -10
c-3 -7 -5 -2 -5 12 0 14 2 19 5 13 2 -7 2 -19 0 -25z m79 5 c-4 -16 -9 -38
-11 -50 -3 -13 -7 -33 -10 -45 -2 -12 -9 -26 -14 -31 -5 -5 0 27 11 72 11 44
23 81 25 81 3 0 2 -12 -1 -27z m-3026 -23 c0 -11 -4 -20 -9 -20 -7 0 -8 17 -2
38 4 10 11 -2 11 -18z m200 16 c0 -3 -4 -8 -10 -11 -5 -3 -10 -1 -10 4 0 6 5
11 10 11 6 0 10 -2 10 -4z m2917 -43 c-3 -10 -5 -4 -5 12 0 17 2 24 5 18 2 -7
2 -21 0 -30z m-176 -10 c-10 -17 -10 -16 -11 3 0 23 13 41 18 25 2 -6 -1 -18
-7 -28z m-2737 12 c3 -8 1 -15 -4 -15 -6 0 -10 7 -10 15 0 8 2 15 4 15 2 0 6
-7 10 -15z m2871 -35 c-9 -41 -17 -33 -9 9 4 17 9 30 11 27 3 -2 2 -19 -2 -36z
m-3078 8 c-3 -8 -6 -5 -6 6 -1 11 2 17 5 13 3 -3 4 -12 1 -19z m603 8 c0 -2
-8 -10 -17 -17 -16 -13 -17 -12 -4 4 13 16 21 21 21 13z m425 -46 l49 -50 1
-221 c0 -121 -2 -222 -5 -224 -3 -2 -5 97 -5 218 l1 222 -55 53 c-30 28 -51
52 -45 52 5 0 32 -23 59 -50z m1095 18 c-19 -18 -46 -41 -60 -52 -14 -10 -1 4
28 33 29 28 56 51 60 51 3 0 -9 -15 -28 -32z m410 22 c0 -5 -2 -10 -4 -10 -3
0 -8 5 -11 10 -3 6 -1 10 4 10 6 0 11 -4 11 -10z m-2316 -15 c3 -8 1 -15 -4
-15 -6 0 -10 7 -10 15 0 8 2 15 4 15 2 0 6 -7 10 -15z m2371 -37 c37 -40 33
-38 -22 8 -20 16 -30 34 -20 34 2 0 21 -19 42 -42z m344 -2 c-9 -8 -10 -7 -5
7 3 10 7 24 7 30 1 7 3 4 6 -7 3 -10 -1 -23 -8 -30z m-2920 7 c0 -25 -1 -25
-8 -8 -5 11 -7 23 -4 28 8 14 13 7 12 -20z m551 20 c0 -5 -17 -21 -38 -37
l-37 -29 34 36 c36 39 41 42 41 30z m2550 -18 c0 -8 -4 -15 -10 -15 -5 0 -7 7
-4 15 4 8 8 15 10 15 2 0 4 -7 4 -15z m-2886 -11 c3 -8 2 -12 -4 -9 -6 3 -10
10 -10 16 0 14 7 11 14 -7z m2828 -26 c-8 -8 -9 -4 -5 13 4 13 8 18 11 10 2
-7 -1 -18 -6 -23z m-126 -14 c-4 -9 -9 -15 -11 -12 -3 3 -3 13 1 22 4 9 9 15
11 12 3 -3 3 -13 -1 -22z m51 -10 c-6 -20 -13 -32 -14 -27 -4 11 14 63 21 63
2 0 -1 -16 -7 -36z m108 -49 c-9 -42 -19 -75 -21 -73 -2 3 4 39 13 81 9 42 18
75 21 72 2 -2 -3 -38 -13 -80z m-3065 65 c0 -5 -5 -10 -11 -10 -5 0 -7 5 -4
10 3 6 8 10 11 10 2 0 4 -4 4 -10z m3030 -20 c0 -5 -5 -10 -11 -10 -5 0 -7 5
-4 10 3 6 8 10 11 10 2 0 4 -4 4 -10z m-3020 -35 c0 -5 -5 -3 -10 5 -5 8 -10
20 -10 25 0 6 5 3 10 -5 5 -8 10 -19 10 -25z m223 -15 c-6 -7 -23 23 -23 40 0
8 6 4 13 -10 8 -14 12 -27 10 -30z m2658 17 c-10 -9 -11 -8 -5 6 3 10 9 15 12
12 3 -3 0 -11 -7 -18z m38 -34 c-16 -43 -89 -185 -112 -220 -25 -37 -38 -43
-30 -13 3 11 9 20 12 20 4 0 16 27 27 60 19 59 36 82 28 38 -2 -13 14 14 37
60 42 82 57 105 38 55z m81 12 c0 -8 -4 -15 -10 -15 -5 0 -7 7 -4 15 4 8 8 15
10 15 2 0 4 -7 4 -15z m-132 -43 c-6 -23 -14 -42 -19 -42 -4 0 -1 20 8 46 19
56 26 53 11 -4z m-2633 28 c3 -5 1 -10 -4 -10 -6 0 -11 5 -11 10 0 6 2 10 4
10 3 0 8 -4 11 -10z m-220 -20 c3 -5 1 -10 -4 -10 -6 0 -11 5 -11 10 0 6 2 10
4 10 3 0 8 -4 11 -10z m2927 -96 c-60 -125 -56 -117 -157 -264 -13 -19 -51
-64 -85 -100 -34 -36 -52 -51 -40 -35 12 17 41 50 64 75 46 50 166 228 166
247 0 7 5 13 10 13 6 0 10 4 10 9 0 14 71 163 76 158 3 -2 -17 -49 -44 -103z
m-2867 -112 c-2 -3 -7 3 -10 12 -3 9 -8 24 -12 34 -3 9 -7 22 -9 27 -1 6 -9
30 -18 54 -9 24 -16 49 -15 55 0 6 16 -31 35 -83 19 -52 32 -96 29 -99z m216
91 c45 -93 148 -246 214 -318 l54 -60 1 62 c0 41 -4 63 -12 66 -8 2 -7 3 2 3
12 -1 16 -18 18 -74 2 -39 -1 -72 -5 -72 -5 0 -23 17 -40 38 -17 20 -43 51
-58 67 -47 53 -141 198 -175 270 -18 39 -35 73 -37 78 -2 4 -2 7 0 7 3 0 20
-30 38 -67z m2716 -5 c-9 -24 -22 -56 -28 -73 -7 -16 -13 -32 -14 -35 -6 -18
-58 -119 -71 -136 -14 -20 -12 -24 32 -60 26 -22 57 -48 70 -59 27 -24 50 -44
136 -117 36 -31 79 -68 95 -81 64 -58 79 -70 101 -84 12 -9 22 -20 22 -25 0
-9 -66 44 -170 137 -25 22 -70 61 -100 86 -30 25 -88 74 -128 108 -40 34 -76
60 -81 57 -5 -4 15 41 44 98 29 57 63 133 76 169 13 36 25 64 28 62 2 -3 -3
-24 -12 -47z m-2909 -123 c-3 -3 -9 2 -12 12 -6 14 -5 15 5 6 7 -7 10 -15 7
-18z m26 -52 c9 -18 12 -33 7 -33 -5 0 -11 8 -14 18 -2 9 -8 26 -12 37 -11 28
0 16 19 -22z m135 -223 c14 -19 36 -46 48 -60 12 -13 20 -26 17 -29 -3 -3 -8
-1 -12 5 -4 6 -28 37 -53 70 -48 62 -119 176 -119 190 0 5 21 -25 46 -66 26
-41 59 -91 73 -110z m786 160 c-3 -5 -14 -10 -23 -10 -15 0 -15 2 -2 10 20 13
33 13 25 0z m-558 -6 c-3 -3 -12 -4 -19 -1 -8 3 -5 6 6 6 11 1 17 -2 13 -5z
m455 -202 l-3 -209 69 -31 c38 -18 93 -41 123 -51 30 -11 48 -20 41 -20 -18
-1 -167 57 -210 83 l-37 21 1 200 c2 223 1 215 12 215 4 0 6 -94 4 -208z m308
168 c0 -5 -5 -10 -11 -10 -5 0 -7 5 -4 10 3 6 8 10 11 10 2 0 4 -4 4 -10z
m-1095 -29 c8 -17 37 -59 64 -94 61 -81 64 -87 52 -87 -5 0 -12 8 -15 18 -4 9
-19 31 -34 48 -15 18 -40 55 -57 83 -18 30 -35 49 -43 46 -7 -3 -10 0 -7 5 11
17 24 11 40 -19z m1628 -503 c8 -5 7 -8 -5 -8 -17 0 -18 19 -16 273 l3 272 2
-265 c3 -196 7 -266 16 -272z m1197 512 c11 -11 20 -22 20 -25 0 -9 -49 29
-50 38 0 12 9 8 30 -13z m167 14 c-3 -3 -12 -4 -19 -1 -8 3 -5 6 6 6 11 1 17
-2 13 -5z m-660 -26 c-3 -8 -6 -5 -6 6 -1 11 2 17 5 13 3 -3 4 -12 1 -19z
m587 -77 c-5 -6 -64 40 -64 51 0 5 15 -3 33 -19 19 -15 33 -30 31 -32z m-474
-54 c-91 -81 -120 -100 -120 -75 0 6 3 8 7 5 7 -8 88 56 117 91 10 13 21 20
25 17 3 -4 -10 -21 -29 -38z m546 -2 c30 -25 50 -45 44 -45 -5 0 -23 11 -38
24 -15 13 -38 34 -52 45 -14 11 -22 20 -17 21 4 0 32 -20 63 -45z m364 -35 c0
-5 -5 -10 -11 -10 -5 0 -7 5 -4 10 3 6 8 10 11 10 2 0 4 -4 4 -10z m-3837 -7
c-7 -2 -19 -2 -25 0 -7 3 -2 5 12 5 14 0 19 -2 13 -5z m44 1 c-3 -3 -12 -4
-19 -1 -8 3 -5 6 6 6 11 1 17 -2 13 -5z m40 0 c-3 -3 -12 -4 -19 -1 -8 3 -5 6
6 6 11 1 17 -2 13 -5z m40 0 c-3 -3 -12 -4 -19 -1 -8 3 -5 6 6 6 11 1 17 -2
13 -5z m40 0 c-3 -3 -12 -4 -19 -1 -8 3 -5 6 6 6 11 1 17 -2 13 -5z m3510 0
c-3 -3 -12 -4 -19 -1 -8 3 -5 6 6 6 11 1 17 -2 13 -5z m90 0 c-3 -3 -12 -4
-19 -1 -8 3 -5 6 6 6 11 1 17 -2 13 -5z m40 0 c-3 -3 -12 -4 -19 -1 -8 3 -5 6
6 6 11 1 17 -2 13 -5z m-2861 -265 c43 -32 97 -67 119 -79 22 -12 45 -27 50
-33 37 -40 -218 127 -271 177 -6 6 -43 40 -82 75 -40 35 -79 76 -88 90 -10 14
30 -19 87 -74 58 -55 141 -125 185 -156z m2026 138 c7 -7 40 -35 73 -62 33
-28 65 -55 70 -61 6 -6 37 -33 70 -60 33 -27 73 -61 90 -76 46 -40 68 -59 228
-195 81 -69 145 -128 143 -130 -2 -3 -13 4 -23 14 -11 10 -39 34 -64 55 -24
20 -57 48 -74 63 -16 14 -50 43 -75 63 -25 20 -50 42 -56 47 -183 161 -399
345 -404 345 -3 0 -19 -12 -35 -28 -74 -66 -140 -116 -255 -192 -29 -19 -164
-88 -197 -101 -14 -5 -23 -5 -23 1 0 6 6 10 13 10 22 0 185 87 271 144 45 30
112 82 149 115 37 34 72 61 77 61 5 0 15 -6 22 -13z m784 -121 c17 -14 39 -33
50 -41 10 -8 15 -15 11 -15 -12 0 -126 93 -126 104 -1 5 7 2 17 -6 9 -8 31
-27 48 -42z m-1351 -15 c-78 -28 -101 -34 -92 -25 9 10 105 42 127 42 8 0 -7
-7 -35 -17z m-851 -20 c4 -5 -3 -7 -14 -4 -23 6 -26 13 -6 13 8 0 17 -4 20 -9z
m62 -14 c11 -11 -19 -8 -36 3 -12 8 -10 9 7 7 12 -2 26 -6 29 -10z m674 3 c-8
-5 -22 -9 -30 -9 -10 0 -8 3 5 9 27 12 43 12 25 0z m-50 -10 c0 -5 -10 -10
-22 -9 -22 0 -22 1 -3 9 11 5 21 9 23 9 1 1 2 -3 2 -9z m-55 -10 c3 -5 -1 -10
-10 -10 -9 0 -13 5 -10 10 3 6 8 10 10 10 2 0 7 -4 10 -10z m1690 -36 c22 -20
50 -43 63 -51 12 -8 22 -20 22 -25 0 -8 -28 14 -134 104 -6 5 -6 8 0 8 5 0 27
-16 49 -36z m-2692 -54 c20 -8 37 -18 37 -22 0 -5 -19 1 -42 13 -40 20 -66 37
-43 28 6 -2 27 -11 48 -19z m112 -51 c15 -14 -7 -10 -35 7 l-25 15 25 -7 c14
-3 29 -10 35 -15z m2732 -24 c35 -26 74 -65 67 -65 -5 0 -34 24 -65 53 -49 46
-50 49 -2 12z m-1602 25 c-3 -5 -12 -10 -18 -10 -7 0 -6 4 3 10 19 12 23 12
15 0z m-1025 -35 c41 -14 60 -22 41 -19 -38 7 -142 42 -126 43 6 0 44 -10 85
-24z m989 21 c-11 -10 -119 -45 -119 -38 0 4 21 14 48 23 45 16 80 23 71 15z
m-144 -46 c-11 -5 -29 -8 -40 -8 -16 0 -15 2 5 8 34 11 60 11 35 0z m-725 -9
c0 -5 -9 -7 -20 -4 -11 3 -20 7 -20 9 0 2 9 4 20 4 11 0 20 -4 20 -9z m44 -10
c4 -5 -3 -7 -14 -4 -23 6 -26 13 -6 13 8 0 17 -4 20 -9z m596 -1 c-14 -4 -38
-8 -55 -8 -29 1 -29 1 5 8 50 11 83 11 50 0z m-539 -13 c-5 -5 -17 -5 -28 2
-16 9 -15 10 9 9 16 -2 24 -6 19 -11z m62 -4 c-7 -2 -21 -2 -30 0 -10 3 -4 5
12 5 17 0 24 -2 18 -5z m380 0 c-7 -2 -21 -2 -30 0 -10 3 -4 5 12 5 17 0 24
-2 18 -5z m-230 -10 c-18 -2 -48 -2 -65 0 -18 2 -4 4 32 4 36 0 50 -2 33 -4z
m110 0 c-13 -2 -35 -2 -50 0 -16 2 -5 4 22 4 28 0 40 -2 28 -4z m2182 -22 c-6
-5 -25 10 -25 20 0 5 6 4 14 -3 8 -7 12 -15 11 -17z m10 -21 c3 -5 1 -10 -4
-10 -6 0 -11 5 -11 10 0 6 2 10 4 10 3 0 8 -4 11 -10z m2 -102 c-3 -8 -6 -5
-6 6 -1 11 2 17 5 13 3 -3 4 -12 1 -19z m-389 -84 c41 -37 91 -73 110 -81 19
-8 32 -16 29 -19 -8 -8 -79 31 -113 63 -17 15 -50 45 -75 65 -24 21 -40 38
-36 38 5 0 43 -30 85 -66z m361 -10 c-23 -45 -83 -103 -95 -91 -3 3 8 13 26
22 22 11 40 33 57 71 14 31 27 53 30 50 3 -2 -6 -26 -18 -52z m-129 -100 c0
-2 -13 -4 -30 -4 -16 0 -30 4 -30 8 0 5 14 7 30 4 17 -2 30 -6 30 -8z"/>
<path d="M2000 3420 c-19 -11 -31 -19 -27 -20 11 0 67 29 67 35 0 7 -1 7 -40
-15z"/>
<path d="M3926 1455 c-9 -26 -7 -32 5 -12 6 10 9 21 6 23 -2 3 -7 -2 -11 -11z"/>
</g>
</svg>
